<svg xmlns="http://www.w3.org/2000/svg" version="1.1" xmlns:xlink="http://www.w3.org/1999/xlink" xmlns:svgjs="http://svgjs.dev/svgjs" width="1000" height="1000" viewBox="0 0 1000 1000"><rect width="1000" height="1000" fill="#ffffff"></rect><g transform="matrix(0.7,0,0,0.7,148.71300322264943,282.47627530364366)"><svg viewBox="0 0 397 247" data-background-color="#ffffff" preserveAspectRatio="xMidYMid meet" height="622" width="1000" xmlns="http://www.w3.org/2000/svg" xmlns:xlink="http://www.w3.org/1999/xlink"><defs></defs><g id="tight-bounds" transform="matrix(1,0,0,1,0.7299110294402453,-0.09999999999999432)"><svg viewBox="0 0 395.52 247.2" height="247.2" width="395.52"><g><svg></svg></g><g><svg viewBox="0 0 395.52 247.2" height="247.2" width="395.52"><g transform="matrix(4.136261131556069, 0, 0, 4.136261131556069, 1, 2.680340051099961)"><svg xmlns="http://www.w3.org/2000/svg" data-name="Layer 1" viewBox="2.430551767349243 20.79190444946289 95.1390609741211 58.46809768676758" x="0" y="0" height="58.46809768676758" width="95.1390609741211" class="icon-none" data-fill-palette-color="accent" id="none"><path d="M62.78 23l32 55.42 1.3-2.26h-64l1.3 2.26L65.37 23a1.5 1.5 0 0 0-2.59-1.51L30.79 77a1.51 1.51 0 0 0 1.3 2.26h64A1.51 1.51 0 0 0 97.37 77l-32-55.42A1.5 1.5 0 0 0 62.78 23Z" fill="#000000" data-fill-palette-color="accent"></path><path d="M34.63 23l32 55.42 1.3-2.26h-64l1.3 2.26L37.22 23a1.5 1.5 0 0 0-2.59-1.51L2.63 77a1.51 1.51 0 0 0 1.3 2.26h64A1.51 1.51 0 0 0 69.21 77l-32-55.42A1.5 1.5 0 0 0 34.63 23Z" fill="#000000" data-fill-palette-color="accent"></path></svg></g><rect width="348.05760000000004" height="138.33106940249235" fill="#ffffff" y="54.43446529875382" x="23.731199999999973" data-fill-palette-color="quaternary"></rect><g transform="matrix(1,0,0,1,39.55199999999999,76.617395825128)"><svg viewBox="0 0 316.416 93.965208349744" height="93.965208349744" width="316.416"><g><svg viewBox="0 0 316.416 93.965208349744" height="93.965208349744" width="316.416"><g><svg viewBox="0 0 316.416 93.965208349744" height="93.965208349744" width="316.416"><g><svg viewBox="0 0 316.416 93.965208349744" height="93.965208349744" width="316.416"><g><svg viewBox="0 0 316.416 93.965208349744" height="93.965208349744" width="316.416"><g><svg viewBox="0 0 316.416 93.965208349744" height="93.965208349744" width="316.416"><g transform="matrix(1,0,0,1,0,0)"><svg width="316.416" viewBox="0.9000000357627869 -27.549999237060547 126.93999481201172 37.69999694824219" height="93.965208349744" data-palette-color="#000000"><path d="M12.9 0.45Q9.5 0.45 6.2-0.33 2.9-1.1 0.9-2.35L0.9-2.35 3.75-8.85Q5.6-7.7 8.15-7.03 10.7-6.35 13.2-6.35L13.2-6.35Q15.5-6.35 16.48-6.83 17.45-7.3 17.45-8.2L17.45-8.2Q17.45-9.1 16.28-9.47 15.1-9.85 12.55-10.2L12.55-10.2Q9.3-10.6 7.03-11.25 4.75-11.9 3.1-13.65 1.45-15.4 1.45-18.55L1.45-18.55Q1.45-21.15 3-23.18 4.55-25.2 7.53-26.38 10.5-27.55 14.65-27.55L14.65-27.55Q17.6-27.55 20.5-26.95 23.4-26.35 25.35-25.25L25.35-25.25 22.5-18.8Q18.9-20.8 14.7-20.8L14.7-20.8Q12.45-20.8 11.4-20.28 10.35-19.75 10.35-18.9L10.35-18.9Q10.35-17.95 11.5-17.57 12.65-17.2 15.3-16.8L15.3-16.8Q18.65-16.3 20.85-15.65 23.05-15 24.68-13.28 26.3-11.55 26.3-8.45L26.3-8.45Q26.3-5.9 24.75-3.88 23.2-1.85 20.18-0.7 17.15 0.45 12.9 0.45L12.9 0.45ZM44 0.45Q39.65 0.45 36.15-1.35 32.65-3.15 30.67-6.35 28.7-9.55 28.7-13.6L28.7-13.6Q28.7-17.6 30.67-20.8 32.65-24 36.12-25.78 39.6-27.55 44-27.55L44-27.55Q48.4-27.55 51.9-25.78 55.4-24 57.35-20.83 59.3-17.65 59.3-13.6L59.3-13.6Q59.3-9.55 57.35-6.35 55.4-3.15 51.9-1.35 48.4 0.45 44 0.45L44 0.45ZM44-7.1Q46.5-7.1 48.1-8.83 49.7-10.55 49.7-13.6L49.7-13.6Q49.7-16.6 48.1-18.3 46.5-20 44-20L44-20Q41.5-20 39.9-18.3 38.3-16.6 38.3-13.6L38.3-13.6Q38.3-10.55 39.9-8.83 41.5-7.1 44-7.1L44-7.1ZM83.8-27.1L92.85-27.1 92.85-4.95Q92.85 2.6 88.75 6.38 84.65 10.15 76.95 10.15L76.95 10.15Q72.95 10.15 69.45 9.25 65.95 8.35 63.5 6.6L63.5 6.6 66.95-0.05Q68.6 1.3 71.12 2.08 73.65 2.85 76.1 2.85L76.1 2.85Q79.85 2.85 81.6 1.2 83.35-0.45 83.35-3.7L83.35-3.7 83.35-4.6Q80.6-1.4 75.3-1.4L75.3-1.4Q71.7-1.4 68.65-3.03 65.6-4.65 63.8-7.63 62-10.6 62-14.5L62-14.5Q62-18.35 63.8-21.33 65.6-24.3 68.65-25.93 71.7-27.55 75.3-27.55L75.3-27.55Q81.1-27.55 83.8-23.8L83.8-23.8 83.8-27.1ZM77.55-8.95Q80.1-8.95 81.77-10.5 83.45-12.05 83.45-14.5L83.45-14.5Q83.45-16.95 81.8-18.48 80.15-20 77.55-20L77.55-20Q74.95-20 73.27-18.48 71.6-16.95 71.6-14.5L71.6-14.5Q71.6-12.05 73.3-10.5 75-8.95 77.55-8.95L77.55-8.95ZM112.54 0.45Q108.19 0.45 104.69-1.35 101.19-3.15 99.22-6.35 97.24-9.55 97.24-13.6L97.24-13.6Q97.24-17.6 99.22-20.8 101.19-24 104.67-25.78 108.14-27.55 112.54-27.55L112.54-27.55Q116.94-27.55 120.44-25.78 123.94-24 125.89-20.83 127.84-17.65 127.84-13.6L127.84-13.6Q127.84-9.55 125.89-6.35 123.94-3.15 120.44-1.35 116.94 0.45 112.54 0.45L112.54 0.45ZM112.54-7.1Q115.04-7.1 116.64-8.83 118.24-10.55 118.24-13.6L118.24-13.6Q118.24-16.6 116.64-18.3 115.04-20 112.54-20L112.54-20Q110.04-20 108.44-18.3 106.84-16.6 106.84-13.6L106.84-13.6Q106.84-10.55 108.44-8.83 110.04-7.1 112.54-7.1L112.54-7.1Z" opacity="1" transform="matrix(1,0,0,1,0,0)" fill="#000000" class="undefined-text-0" data-fill-palette-color="primary" id="text-0"></path></svg></g></svg></g></svg></g></svg></g></svg></g></svg></g></svg></g></svg></g></svg><rect width="395.52" height="247.2" fill="none" stroke="none" visibility="hidden"></rect></g></svg></g></svg>